<?xml version="1.0" standalone="no"?>
<!DOCTYPE svg PUBLIC "-//W3C//DTD SVG 20010904//EN"
 "http://www.w3.org/TR/2001/REC-SVG-20010904/DTD/svg10.dtd">
<svg version="1.0" xmlns="http://www.w3.org/2000/svg"
 width="260.000000pt" height="260.000000pt" viewBox="0 0 260.000000 260.000000"
 preserveAspectRatio="xMidYMid meet">
<metadata>
Created by potrace 1.11, written by Peter Selinger 2001-2013
</metadata>
<g transform="translate(0.000000,260.000000) scale(0.100000,-0.100000)"
fill="#000000" stroke="none">
<path d="M726 2559 c-46 -36 -28 -119 29 -133 14 -4 25 -12 25 -19 0 -20 -198
-1228 -202 -1232 -2 -2 -109 -15 -238 -30 -129 -14 -245 -29 -258 -32 -12 -3
-34 -19 -48 -36 -26 -30 -26 -35 -21 -122 11 -174 94 -406 192 -537 42 -57 49
-58 200 -29 285 56 654 70 950 37 83 -9 213 -23 290 -31 269 -29 690 -15 745
24 51 37 141 248 175 411 34 161 28 428 -10 486 -8 13 -29 31 -46 39 -29 15
-75 12 -765 -61 -404 -42 -738 -74 -741 -70 -5 5 81 564 93 609 5 16 33 17
400 17 309 0 394 -3 394 -12 0 -7 -13 -89 -29 -183 -16 -93 -26 -173 -23 -176
8 -6 208 13 215 21 7 7 77 435 77 471 0 22 -10 41 -34 65 l-34 34 -464 0 -464
0 22 143 c37 224 32 207 60 207 31 0 84 50 84 80 0 12 -13 35 -29 51 l-29 29
-245 0 c-232 0 -246 -1 -271 -21z"/>
<path d="M1213 1740 c-91 -55 -47 -200 61 -203 68 -2 116 47 116 118 0 29 -8
45 -34 71 -40 40 -92 46 -143 14z"/>
<path d="M1522 1732 c-38 -35 -48 -79 -28 -125 19 -46 56 -70 108 -70 35 0 47
6 75 36 47 52 47 105 -1 153 -29 29 -41 34 -79 34 -35 0 -51 -6 -75 -28z"/>
<path d="M695 310 c-160 -18 -311 -43 -342 -55 -36 -15 -63 -60 -63 -106 0
-22 10 -41 35 -66 35 -35 37 -36 98 -30 34 3 109 14 167 23 84 14 165 18 400
18 263 1 321 -2 540 -28 187 -22 291 -29 440 -29 206 -1 397 16 442 39 30 16
58 61 58 94 0 34 -28 79 -61 96 -28 14 -43 14 -138 2 -175 -21 -470 -15 -736
17 -184 22 -283 28 -495 30 -146 2 -301 -1 -345 -5z"/>
</g>
</svg>
