<?xml version="1.0" encoding="utf-8"?>
<!-- Generator: Adobe Illustrator 19.1.0, SVG Export Plug-In . SVG Version: 6.00 Build 0)  -->
<!DOCTYPE svg PUBLIC "-//W3C//DTD SVG 1.1//EN" "http://www.w3.org/Graphics/SVG/1.1/DTD/svg11.dtd">
<svg version="1.1" id="Layer_1" xmlns="http://www.w3.org/2000/svg" xmlns:xlink="http://www.w3.org/1999/xlink" x="0px" y="0px"
	 viewBox="0 0 255 207.7" style="enable-background:new 0 0 255 207.7;" xml:space="preserve">
<style type="text/css">
	.st0{fill:#FFFFFF;}
	.st1{fill:#185D87;}
	.st2{font-family:'FreightSansProBold-Regular';}
	.st3{font-size:12.553px;}
	.st4{fill:#2797CC;}
	.st5{font-size:13px;}
	.st6{clip-path:url(#SVGID_2_);fill:#F7F7F7;}
	.st7{font-family:'FreightSansProBook-Regular';}
	.st8{font-size:11.4118px;}
	.st9{fill:#687682;}
	.st10{font-family:'FreightTextProBook-Italic';}
	.st11{font-size:9.1295px;}
	.st12{fill:#E1E0E2;}
	.st13{fill:none;stroke:#F7F7F7;stroke-width:3;stroke-linecap:square;stroke-miterlimit:10;}
	.st14{fill:none;stroke:#7ED321;stroke-width:3;stroke-linecap:square;stroke-miterlimit:10;}
	.st15{clip-path:url(#SVGID_4_);fill:#37A9EF;}
	.st16{font-family:'FreightSansProMedium-Regular';}
	.st17{fill:#F7F7F7;}
	.st18{fill:none;}
</style>
<rect y="17.1" class="st0" width="254.5" height="190.5"/>
<text transform="matrix(1 0 0 1 22.9163 53.8741)" class="st1 st2 st3">MSNBC.COM PREVIEWS</text>
<text transform="matrix(1 0 0 1 40.1067 103.7963)" class="st4 st2 st5">Launch new ad campaign </text>
<g>
	<defs>
		<rect id="SVGID_1_" x="24" y="68" width="208.4" height="3.4"/>
	</defs>
	<clipPath id="SVGID_2_">
		<use xlink:href="#SVGID_1_"  style="overflow:visible;"/>
	</clipPath>
	<rect x="22.9" y="62.3" class="st6" width="210.7" height="14.8"/>
</g>
<text transform="matrix(1 0 0 1 40.1067 123.478)"><tspan x="0" y="0" class="st4 st7 st8">I</tspan><tspan x="2.6" y="0" class="st4 st7 st8">s</tspan><tspan x="7.1" y="0" class="st4 st7 st8">sue #46</tspan></text>
<text transform="matrix(1 0 0 1 107.5256 123.0288)" class="st9 st10 st11">Built 5 days ago by sirkitree </text>
<path class="st12" d="M99.1,117v6.2c0,0.5-0.2,0.9-0.5,1.3c-0.4,0.4-0.8,0.5-1.3,0.5h-1.4c-0.1,0-0.1,0-0.2,0c0,0-0.1,0-0.1,0
	c0,0-0.1,0-0.1-0.1c0,0,0-0.1,0-0.2v-1.5c0-0.4-0.1-0.7-0.3-0.9c0.2,0,0.5-0.1,0.7-0.1c0.2-0.1,0.4-0.1,0.6-0.3
	c0.2-0.1,0.4-0.3,0.5-0.4c0.1-0.2,0.3-0.4,0.3-0.7c0.1-0.3,0.1-0.6,0.1-1c0-0.5-0.2-1-0.5-1.3c0.2-0.4,0.1-0.8-0.1-1.3
	c-0.1,0-0.3,0-0.5,0.1c-0.2,0.1-0.4,0.2-0.6,0.3l-0.2,0.2c-0.4-0.1-0.8-0.2-1.2-0.2s-0.8,0.1-1.2,0.2c-0.1,0-0.2-0.1-0.3-0.2
	c-0.1-0.1-0.3-0.2-0.5-0.2c-0.2-0.1-0.4-0.1-0.6-0.1c-0.2,0.5-0.2,0.9,0,1.3c-0.3,0.4-0.5,0.8-0.5,1.3c0,0.4,0,0.7,0.1,1
	c0.1,0.3,0.2,0.5,0.3,0.7c0.1,0.2,0.3,0.3,0.5,0.4c0.2,0.1,0.4,0.2,0.6,0.3c0.2,0.1,0.4,0.1,0.7,0.1c-0.2,0.2-0.3,0.4-0.3,0.7
	c-0.1,0-0.2,0.1-0.3,0.1c-0.1,0-0.2,0-0.4,0c-0.1,0-0.3,0-0.4-0.1c-0.1-0.1-0.3-0.2-0.4-0.4c-0.1-0.1-0.2-0.2-0.3-0.3
	c-0.1-0.1-0.2-0.1-0.3-0.2l-0.1,0c-0.1,0-0.2,0-0.2,0c0,0,0,0,0,0.1c0,0,0,0.1,0.1,0.1c0,0,0.1,0.1,0.1,0.1l0,0
	c0.1,0,0.2,0.1,0.3,0.2c0.1,0.1,0.2,0.2,0.2,0.3l0.1,0.1c0.1,0.2,0.2,0.3,0.3,0.4c0.1,0.1,0.3,0.2,0.4,0.2c0.2,0,0.3,0,0.4,0
	c0.1,0,0.3,0,0.4,0l0.1,0c0,0.2,0,0.4,0,0.7c0,0.3,0,0.4,0,0.4c0,0.1,0,0.2-0.1,0.2c0,0-0.1,0.1-0.1,0.1c0,0-0.1,0-0.2,0H91
	c-0.5,0-0.9-0.2-1.3-0.5c-0.4-0.4-0.5-0.8-0.5-1.3V117c0-0.5,0.2-0.9,0.5-1.3c0.4-0.4,0.8-0.5,1.3-0.5h6.2c0.5,0,0.9,0.2,1.3,0.5
	C98.9,116,99.1,116.5,99.1,117z M91,122.2C91,122.2,91.1,122.2,91,122.2C91,122.3,91,122.3,91,122.2C90.9,122.2,90.9,122.2,91,122.2
	C90.9,122.2,91,122.1,91,122.2L91,122.2z M91.2,122.4c0,0,0,0.1,0,0.1C91.2,122.5,91.2,122.5,91.2,122.4c-0.1,0-0.1,0-0.1,0
	C91.2,122.3,91.2,122.3,91.2,122.4L91.2,122.4z M91.3,122.6c0,0,0.1,0,0.1,0c0,0.1,0,0.1,0,0.1c0,0-0.1,0-0.1,0
	C91.3,122.6,91.3,122.6,91.3,122.6L91.3,122.6z M91.7,122.9c0.1,0,0.1,0.1,0,0.1c0,0-0.1,0-0.1,0c-0.1,0-0.1-0.1,0-0.1
	C91.6,122.8,91.6,122.8,91.7,122.9L91.7,122.9z M92,123.1c0.1,0,0.1,0.1,0.1,0.1c0,0.1-0.1,0.1-0.1,0c-0.1,0-0.1,0-0.1-0.1
	C91.9,123.1,91.9,123.1,92,123.1L92,123.1z M92.4,123.1c0.1,0,0.1,0,0.1,0.1c0,0,0,0.1-0.1,0.1c-0.1,0-0.1,0-0.1-0.1
	C92.3,123.2,92.3,123.1,92.4,123.1L92.4,123.1z M92.7,123.1c0.1,0,0.1,0,0.1,0.1c0,0,0,0.1-0.1,0.1
	C92.7,123.3,92.7,123.2,92.7,123.1C92.6,123.1,92.7,123.1,92.7,123.1L92.7,123.1z"/>
<line class="st13" x1="231.3" y1="69.2" x2="231.3" y2="206.2"/>
<line class="st14" x1="24.4" y1="70.2" x2="24.4" y2="208.2"/>
<g>
	<defs>
		<path id="SVGID_3_" d="M38.3,147.6c0-1.6,1.7-2.9,3.8-2.9h170.3c2.1,0,3.8,1.3,3.8,2.9V175c0,1.6-1.7,2.9-3.8,2.9H42.2
			c-2.1,0-3.8-1.3-3.8-2.9V147.6z"/>
	</defs>
	<use xlink:href="#SVGID_3_"  style="overflow:visible;fill-rule:evenodd;clip-rule:evenodd;fill:#37A9EF;"/>
	<clipPath id="SVGID_4_">
		<use xlink:href="#SVGID_3_"  style="overflow:visible;"/>
	</clipPath>
	<rect x="33.5" y="141.1" class="st15" width="187.6" height="40.3"/>
</g>
<text transform="matrix(1 0 0 1 51.261 164.9194)"><tspan x="0" y="0" class="st0 st16 st3">P</tspan><tspan x="7.2" y="0" class="st0 st16 st3">r</tspan><tspan x="12.3" y="0" class="st0 st16 st3">e</tspan><tspan x="18.8" y="0" class="st0 st16 st3">vi</tspan><tspan x="28" y="0" class="st0 st16 st3">e</tspan><tspan x="34.6" y="0" class="st0 st16 st3">w</tspan></text>
<path class="st0" d="M203.9,159.8c0.1,0.1,0.1,0.1,0.1,0.2c0,0.1,0,0.2-0.1,0.2l-2.6,2.6c-0.1,0.1-0.1,0.1-0.2,0.1
	c-0.1,0-0.2,0-0.2-0.1c-0.1-0.1-0.1-0.1-0.1-0.2v-1.3h-1.1c-0.3,0-0.6,0-0.9,0c-0.3,0-0.5,0.1-0.8,0.1c-0.3,0.1-0.5,0.1-0.7,0.2
	c-0.2,0.1-0.4,0.2-0.5,0.3c-0.2,0.1-0.3,0.3-0.4,0.5c-0.1,0.2-0.2,0.4-0.2,0.7c-0.1,0.3-0.1,0.6-0.1,0.9c0,0.2,0,0.4,0,0.6
	c0,0,0,0.1,0,0.1c0,0.1,0,0.1,0,0.1c0,0.1,0,0.1,0,0.1c0,0-0.1,0.1-0.1,0.1c-0.1,0-0.1,0-0.1-0.1c0,0,0-0.1-0.1-0.1
	c0,0,0-0.1-0.1-0.2c0-0.1,0-0.1-0.1-0.1c-0.4-1-0.6-1.7-0.6-2.3c0-0.7,0.1-1.2,0.3-1.7c0.5-1.3,2-2,4.4-2h1.1v-1.3
	c0-0.1,0-0.2,0.1-0.2c0.1-0.1,0.1-0.1,0.2-0.1c0.1,0,0.2,0,0.2,0.1L203.9,159.8L203.9,159.8z"/>
<g>
	<g>
		<path class="st17" d="M255,4c0-2.2-1.8-4-4-4H4C1.8,0,0,1.8,0,4v6c0,2.2,1.8,4,4,4h247c2.2,0,4-1.8,4-4V4z"/>
	</g>
	<g>
		<rect y="12" class="st17" width="255" height="12"/>
	</g>
</g>
<g>
	<rect x="38" y="199.8" class="st18" width="196.7" height="44.7"/>
	<text transform="matrix(1 0 0 1 38 208.6572)"><tspan x="0" y="0" class="st4 st2 st5">Add press release for new video </tspan><tspan x="0" y="15.6" class="st4 st2 st5">and promot on the home page</tspan></text>
</g>
<rect x="-32" y="206.5" class="st0" width="320" height="44.7"/>
</svg>
