<?xml version="1.0" encoding="utf-8"?>
<!-- Generator: Adobe Illustrator 19.1.0, SVG Export Plug-In . SVG Version: 6.00 Build 0)  -->
<!DOCTYPE svg PUBLIC "-//W3C//DTD SVG 1.1//EN" "http://www.w3.org/Graphics/SVG/1.1/DTD/svg11.dtd">
<svg version="1.1" id="Layer_1" xmlns="http://www.w3.org/2000/svg" xmlns:xlink="http://www.w3.org/1999/xlink" x="0px" y="0px"
	 viewBox="0 0 41.5 49.8" style="enable-background:new 0 0 41.5 49.8;" xml:space="preserve">
<style type="text/css">
	.st0{fill:#2284C0;}
	.st1{fill:none;stroke:#2284C0;stroke-linejoin:round;stroke-miterlimit:10;}
	.st2{fill:#37A9EF;}
	.st3{fill:#FFFFFF;}
</style>
<g>
	<path class="st0" d="M34.4,6.1c0.6,0,1,0.4,1,1v39.6c0,0.6-0.4,1-1,1H3c-0.6,0-1-0.4-1-1V7.1c0-0.6,0.4-1,1-1H34.4 M34.4,4.1H3
		c-1.7,0-3,1.3-3,3v39.6c0,1.7,1.3,3,3,3h31.4c1.7,0,3-1.3,3-3V7.1C37.4,5.5,36,4.1,34.4,4.1L34.4,4.1z"/>
</g>
<line class="st1" x1="8.3" y1="33.2" x2="29.1" y2="33.2"/>
<line class="st1" x1="8.3" y1="29" x2="29.1" y2="29"/>
<line class="st1" x1="8.3" y1="37.3" x2="29.1" y2="37.3"/>
<line class="st1" x1="8.3" y1="20.8" x2="29.1" y2="20.8"/>
<line class="st1" x1="8.3" y1="16.6" x2="29.1" y2="16.6"/>
<line class="st1" x1="8.3" y1="24.9" x2="29.1" y2="24.9"/>
<g>
	<circle class="st2" cx="31.1" cy="10.4" r="10.4"/>
</g>
<path class="st3" d="M34.9,6.1l-0.7,0.7l-4.7,5L28,10.4l-0.7-0.7l-1.4,1.4l0.7,0.7l2.1,2.1l0.7,0.7l0.7-0.7l5.4-5.8l0.7-0.7
	L34.9,6.1z"/>
</svg>
