<?xml version="1.0" encoding="utf-8"?>
<!-- Generator: Adobe Illustrator 19.1.0, SVG Export Plug-In . SVG Version: 6.00 Build 0)  -->
<!DOCTYPE svg PUBLIC "-//W3C//DTD SVG 1.1//EN" "http://www.w3.org/Graphics/SVG/1.1/DTD/svg11.dtd">
<svg version="1.1" id="Layer_1" xmlns="http://www.w3.org/2000/svg" xmlns:xlink="http://www.w3.org/1999/xlink" x="0px" y="0px"
	 viewBox="0 0 31.5 32" style="enable-background:new 0 0 31.5 32;" xml:space="preserve">
<style type="text/css">
	.st0{fill:#25304C;}
</style>
<path class="st0" d="M31.5,22.8l-2.2-3.3l0,0l-1.1-1.7l-1.7,1.1v0l-3.3,2.2l1.1,1.7l2.2-1.5c-1,4.6-4.9,8.2-9.7,8.6V14H20
	c0.3,0.6,1,1,1.7,1c1.1,0,2-0.9,2-2s-0.9-2-2-2c-0.7,0-1.4,0.4-1.7,1h-3.3V7.9c1.7-0.4,3-2,3-3.9c0-2.2-1.8-4-4-4s-4,1.8-4,4
	c0,1.9,1.3,3.4,3,3.9V12h-3.3c-0.3-0.6-1-1-1.7-1c-1.1,0-2,0.9-2,2s0.9,2,2,2c0.7,0,1.4-0.4,1.7-1h3.3v15.9c-4.8-0.4-8.8-4-9.8-8.7
	l2.3,1.5l1.1-1.7L5,18.9v0l-1.7-1.1l-1.1,1.7l0,0L0,22.8l1.7,1.1l1.4-2c1.2,5.5,5.9,9.6,11.7,10.1V32h2v-0.1
	c5.8-0.4,10.5-4.6,11.7-10.1l1.4,2.1L31.5,22.8z M13.7,4c0-1.1,0.9-2,2-2s2,0.9,2,2s-0.9,2-2,2S13.7,5.1,13.7,4z"/>
</svg>
