<?xml version="1.0" encoding="utf-8"?>
<!-- Generator: Adobe Illustrator 19.1.0, SVG Export Plug-In . SVG Version: 6.00 Build 0)  -->
<!DOCTYPE svg PUBLIC "-//W3C//DTD SVG 1.1//EN" "http://www.w3.org/Graphics/SVG/1.1/DTD/svg11.dtd">
<svg version="1.1" id="Layer_1" xmlns="http://www.w3.org/2000/svg" xmlns:xlink="http://www.w3.org/1999/xlink" x="0px" y="0px"
	 viewBox="0 0 35 29.2" style="enable-background:new 0 0 35 29.2;" xml:space="preserve">
<style type="text/css">
	.st0{fill:#21323F;}
</style>
<path class="st0" d="M34,0H1C0.4,0,0,0.4,0,1v27.2c0,0.5,0.4,1,1,1H34c0.5,0,1-0.4,1-1V1C35,0.4,34.6,0,34,0z M1.9,1.9H33v1.9H1.9
	V1.9z M33.1,27.2H1.9V5.8h31.1V27.2z M4.2,15.3c0.2,0.2,0.4,0.3,0.7,0.3c0.2,0,0.5-0.1,0.7-0.3l2.9-2.9c0.4-0.4,0.4-1,0-1.4L5.5,8.1
	c-0.4-0.4-1-0.4-1.4,0c-0.4,0.4-0.4,1,0,1.4l2.2,2.2l-2.2,2.2C3.8,14.3,3.8,14.9,4.2,15.3z M9.7,17.5h3.9c0.5,0,1-0.4,1-1
	c0-0.5-0.4-1-1-1H9.7c-0.5,0-1,0.4-1,1C8.8,17.1,9.2,17.5,9.7,17.5z"/>
</svg>
