<?xml version="1.0" encoding="utf-8"?>
<!-- Generator: Adobe Illustrator 19.1.0, SVG Export Plug-In . SVG Version: 6.00 Build 0)  -->
<!DOCTYPE svg PUBLIC "-//W3C//DTD SVG 1.1//EN" "http://www.w3.org/Graphics/SVG/1.1/DTD/svg11.dtd">
<svg version="1.1" id="Layer_1" xmlns="http://www.w3.org/2000/svg" xmlns:xlink="http://www.w3.org/1999/xlink" x="0px" y="0px"
	 viewBox="0 0 60 46.5" style="enable-background:new 0 0 60 46.5;" xml:space="preserve">
<style type="text/css">
	.st0{clip-path:url(#SVGID_2_);fill:#2284C0;}
	.st1{clip-path:url(#SVGID_4_);fill:#F7F7F7;}
	.st2{clip-path:url(#SVGID_6_);fill:#37A9EF;}
</style>
<g>
	<defs>
		<path id="SVGID_1_" d="M51.3,42.2l0.1,3.3c0,0.8-1,1.2-1.6,0.7L44.2,41c-0.4-0.4-0.9-0.6-1.5-0.6H31.2c-3.6,0-6.5-2.9-6.5-6.4
			V16.1c0-3.5,2.9-6.4,6.5-6.4h22.2c3.6,0,6.5,2.9,6.5,6.4V34c0,3.5-2.9,6.4-6.5,6.4C51.9,40.4,51.3,41.2,51.3,42.2z"/>
	</defs>
	<use xlink:href="#SVGID_1_"  style="overflow:visible;fill-rule:evenodd;clip-rule:evenodd;fill:#2284C0;"/>
	<clipPath id="SVGID_2_">
		<use xlink:href="#SVGID_1_"  style="overflow:visible;"/>
	</clipPath>
	<rect x="17.9" y="2.9" class="st0" width="48.9" height="50.4"/>
</g>
<g>
	<defs>
		<path id="SVGID_3_" d="M9.3,33.5c1.6,0,2.2,0.8,2.2,1.8l-0.1,3.3c0,0.8,1,1.2,1.6,0.7l5.6-5.2c0.4-0.4,0.9-0.6,1.5-0.6h11.5
			c3.6,0,6.5-2.9,6.5-6.4V9.1c0-3.5-2.9-6.4-6.5-6.4H9.3c-3.6,0-6.5,2.9-6.5,6.4v17.9C2.7,30.6,5.6,33.5,9.3,33.5z"/>
	</defs>
	<clipPath id="SVGID_4_">
		<use xlink:href="#SVGID_3_"  style="overflow:visible;"/>
	</clipPath>
	<rect x="-4.1" y="-4.1" class="st1" width="48.9" height="50.4"/>
</g>
<g>
	<defs>
		<path id="SVGID_5_" d="M8.7,32.5l-0.1,3.3c0,0.8,1,1.2,1.6,0.7l5.6-5.2c0.4-0.4,0.9-0.6,1.5-0.6h11.5c3.6,0,6.5-2.9,6.5-6.4V6.4
			c0-3.5-2.9-6.4-6.5-6.4H6.5C2.9,0,0,2.9,0,6.4v17.9c0,3.5,2.9,6.4,6.5,6.4C8.1,30.7,8.7,31.5,8.7,32.5z"/>
	</defs>
	<clipPath id="SVGID_6_">
		<use xlink:href="#SVGID_5_"  style="overflow:visible;"/>
	</clipPath>
	<rect x="-6.8" y="-6.8" class="st2" width="48.9" height="50.4"/>
</g>
</svg>
