<svg xmlns="http://www.w3.org/2000/svg"><symbol viewBox="0 0 9.4 14.2" id="icon-arrow-down-cta"><title>arrow-down-cta</title> <polyline fill-rule="evenodd" clip-rule="evenodd" points="3.9,0 3.9,11.1 1.1,8.3 0,9.4 4.7,14.2 9.4,9.4 8.3,8.3
	5.5,11.1 5.5,0 3.9,0 "/>       </symbol><symbol viewBox="-298 393.2 13.4 7.8" id="icon-arrow-down"><title>arrow-down</title><path d="M-284.6 394.3l-1.1-1.1-5.6 5.6-5.6-5.6-1.1 1.1 6.7 6.7z"/></symbol><symbol viewBox="-305.2 396.9 18.5 12.3" id="icon-arrow-right"><title>arrow-right</title><path d="M-305.2 404.1h14.5l-3.7 3.7 1.5 1.4 6.1-6.1-6.1-6.2-1.5 1.5 3.7 3.6h-14.5v2.1"/></symbol><symbol viewBox="-296 387.6 18.2 19.4" id="icon-comments"><title>comments</title><path d="M-281.2 403.8c-.8 0-1.1.4-1.1 1v1.8c0 .4-.5.6-.8.4l-2.9-2.8c-.2-.2-.5-.3-.8-.3h-5.8c-1.9 0-3.4-1.5-3.4-3.4V391c0-1.9 1.5-3.4 3.4-3.4h11.5c1.9 0 3.4 1.5 3.4 3.4v9.5c-.1 1.8-1.6 3.3-3.5 3.3z"/></symbol><symbol viewBox="-306 767 49.9 50" id="icon-contact-close"><title>contact-close</title><path d="M-256.6 807.2l-15.1-15.1 15.1-15.1c.2-.2.3-.4.4-.6.2-.6.1-1.2-.4-1.6l-7.1-7.1c-.4-.4-1.1-.6-1.6-.4-.2.1-.4.2-.6.4l-15.1 15.1-15.1-15.1c-.2-.2-.4-.3-.6-.4-.6-.2-1.2-.1-1.6.4l-7.1 7.2c-.4.4-.6 1.1-.4 1.6.1.2.2.4.4.6l15.1 15.1-15.1 15.1c-.2.2-.3.4-.4.6-.2.6-.1 1.2.4 1.6l7.1 7.1c.4.4 1.1.6 1.6.4.2-.1.4-.2.6-.4l15.1-15.1 15.1 15.1c.2.2.4.3.6.4.6.2 1.2.1 1.6-.4l7.1-7.1c.4-.4.6-1.1.4-1.6-.1-.4-.2-.5-.4-.7z"/></symbol><symbol viewBox="0 0 612 675.3" id="icon-download"><title>download</title><g><path d="M470.5 319.2h-60.4c-14.9 0-26.9-12.1-26.9-26.9V145.6c0-15.9-12.9-28.8-28.9-28.8h-95.8c-15.9 0-28.8 12.9-28.8 28.8v146.7c0 14.9-12.1 26.9-26.9 26.9h-61.2c-16.8 0-26 19.6-15.2 32.5l159.1 190.8c10.7 12.9 30.5 12.9 41.2 0l159.1-190.8c10.7-13 1.5-32.5-15.3-32.5zM612 645.8c0-16.2-13.2-29.4-29.4-29.4H29.4c-16 0-29 12.8-29.4 28.7v1.5c.4 15.9 13.4 28.7 29.4 28.7h553.2c16.2 0 29.4-13.2 29.4-29.5z"/></g></symbol><symbol viewBox="277.7 767 28.3 50" id="icon-pause-podcast"><title>pause-podcast</title><path fill="#37A9EF" d="M285.5 817h-7.8v-50h7.8v50zm20.5-50h-7.8v50h7.8v-50z"/></symbol><symbol viewBox="-306 767 42.2 50" id="icon-play-podcast"><title>play-podcast</title><path fill="#37A9EF" d="M-306 817.2V767l42.2 25.3z"/></symbol><symbol viewBox="0 0 612 612" id="icon-play-video"><title>play-video</title><path d="M0 0v612h612V0H0zm258.3 403.9V208.1l162.8 99.1-162.8 96.7z"/></symbol><symbol viewBox="-306 767 49.2 50" id="icon-search"><title>search</title><path d="M-263 815.6l-11.6-11.6c-3.2 2.1-7 3.3-11.1 3.3-11.2 0-20.3-9.1-20.3-20.3 0-11.2 9.1-20.3 20.3-20.3 11.2 0 20.3 9.1 20.3 20.3 0 3.9-1.1 7.6-3 10.6l11.7 11.7c.6.6.1 2.1-1.1 3.3l-1.7 1.7c-1.4 1.4-2.9 1.9-3.5 1.3zm-10.6-28.6c0-6.7-5.4-12.1-12.1-12.1-6.7 0-12.1 5.4-12.1 12.1s5.4 12.1 12.1 12.1c6.7 0 12.1-5.4 12.1-12.1z"/><path d="M-262.08 817.297l-15.556-15.556 7.07-7.07 15.557 15.556z"/></symbol><symbol viewBox="-300 392 10 10" id="icon-share"><title>share</title><path d="M-290 394c0 1.1-.9 2-2 2s-2-.9-2-2 .9-2 2-2 2 .9 2 2zm0 6c0 1.1-.9 2-2 2s-2-.9-2-2 .9-2 2-2 2 .9 2 2zm-6-3c0 1.1-.9 2-2 2s-2-.9-2-2 .9-2 2-2 2 .9 2 2zm3.8 3.4l-6.9-3.4 6.9-3.4.4.9-5.1 2.5 5.1 2.6-.4.8z"/></symbol></svg>
