<?xml version="1.0" encoding="utf-8"?>
<!-- Generator: Adobe Illustrator 19.1.0, SVG Export Plug-In . SVG Version: 6.00 Build 0)  -->
<!DOCTYPE svg PUBLIC "-//W3C//DTD SVG 1.1//EN" "http://www.w3.org/Graphics/SVG/1.1/DTD/svg11.dtd">
<svg version="1.1" id="Layer_1" xmlns="http://www.w3.org/2000/svg" xmlns:xlink="http://www.w3.org/1999/xlink" x="0px" y="0px"
	 viewBox="0 0 32 32" style="enable-background:new 0 0 32 32;" xml:space="preserve">
<style type="text/css">
	.st0{fill:#25304C;}
</style>
<path class="st0" d="M30,13h-8v-3V8h-2H5V7.9c1.7-0.4,3-2,3-3.9c0-2.2-1.8-4-4-4S0,1.8,0,4c0,1.9,1.3,3.4,3,3.9V8v2v15v2v5h2v-5h10
	v3v2h1.2h0.7H17h13h2v-2V15v-2H30z M2,4c0-1.1,0.9-2,2-2c1.1,0,2,0.9,2,2S5.1,6,4,6C2.9,6,2,5.1,2,4z M5,25V10h15v3v2v10h-3h-2H5z
	 M19.1,27L17,29.1V27H19.1z M30,30H18.9l3-3H22v-2V15h8V30z"/>
</svg>
