<?xml version="1.0" encoding="utf-8"?>
<!-- Generator: Adobe Illustrator 19.1.0, SVG Export Plug-In . SVG Version: 6.00 Build 0)  -->
<!DOCTYPE svg PUBLIC "-//W3C//DTD SVG 1.1//EN" "http://www.w3.org/Graphics/SVG/1.1/DTD/svg11.dtd">
<svg version="1.1" id="Layer_1" xmlns="http://www.w3.org/2000/svg" xmlns:xlink="http://www.w3.org/1999/xlink" x="0px" y="0px"
	 viewBox="0 0 32 32" style="enable-background:new 0 0 32 32;" xml:space="preserve">
<style type="text/css">
	.st0{fill:#21323F;}
</style>
<path class="st0" d="M32,17v-2h-3.1c-0.2-2.8-1.3-5.4-3.1-7.5L28,5.4L26.6,4l-2.2,2.2c-2-1.7-4.6-2.9-7.5-3.1V0h-2v3.1
	c-2.8,0.2-5.4,1.3-7.5,3.1L5.4,4L4,5.4l2.2,2.2c-1.7,2-2.9,4.6-3.1,7.5H0v2h3.1c0.2,2.8,1.3,5.4,3.1,7.5L4,26.6L5.4,28l2.2-2.2
	c2,1.7,4.6,2.9,7.5,3.1V32h2v-3.1c2.8-0.2,5.4-1.3,7.5-3.1l2.2,2.2l1.4-1.4l-2.2-2.2c1.7-2,2.9-4.6,3.1-7.5H32z M26.9,15h-7.1
	c-0.1-0.4-0.2-0.7-0.4-1l5-5C25.8,10.6,26.7,12.7,26.9,15z M16,18c-0.6,0-1.1-0.2-1.4-0.6l0,0C14.2,17.1,14,16.6,14,16
	c0-0.6,0.2-1.1,0.6-1.4l0,0c0.4-0.4,0.9-0.6,1.4-0.6c1.1,0,2,0.9,2,2S17.1,18,16,18z M23,7.5l-5,5c-0.3-0.2-0.7-0.3-1-0.4V5.1
	C19.3,5.3,21.4,6.2,23,7.5z M15,5.1v7.1c-0.4,0.1-0.7,0.2-1,0.4l-5-5C10.6,6.2,12.7,5.3,15,5.1z M7.5,9l5,5c-0.2,0.3-0.3,0.7-0.4,1
	H5.1C5.3,12.7,6.2,10.6,7.5,9z M5.1,17h7.1c0.1,0.4,0.2,0.7,0.4,1l-5,5C6.2,21.4,5.3,19.3,5.1,17z M9,24.5l5-5
	c0.3,0.2,0.7,0.3,1,0.4v7.1C12.7,26.7,10.6,25.8,9,24.5z M17,26.9v-7.1c0.4-0.1,0.7-0.2,1-0.4l5,5C21.4,25.8,19.3,26.7,17,26.9z
	 M24.5,23l-5-5c0.2-0.3,0.3-0.7,0.4-1h7.1C26.7,19.3,25.8,21.4,24.5,23z"/>
</svg>
