<?xml version="1.0" encoding="utf-8"?>
<!-- Generator: Adobe Illustrator 19.2.1, SVG Export Plug-In . SVG Version: 6.00 Build 0)  -->
<svg version="1.1" id="Layer_1" xmlns="http://www.w3.org/2000/svg" xmlns:xlink="http://www.w3.org/1999/xlink" x="0px" y="0px"
	 viewBox="0 0 68.8 60.3" style="enable-background:new 0 0 68.8 60.3;" xml:space="preserve">
<path d="M67.1,54.6c-0.9,0-1.7,0.7-1.7,1.6c-0.2,0.2-1,0.7-2.4,0.7s-2.2-0.5-2.4-0.7c0-0.1,0-0.1,0-0.1c0-0.1,0-0.1,0-0.2
	c0-0.1,0-0.1-0.1-0.2c0,0,0-0.1-0.1-0.1c0-0.1-0.1-0.1-0.1-0.2c0,0,0-0.1-0.1-0.1c0,0-0.1-0.1-0.1-0.1c0,0-0.1-0.1-0.1-0.1
	c0,0-0.1-0.1-0.1-0.1c0,0-0.1-0.1-0.1-0.1c-0.1,0-0.1-0.1-0.2-0.1c0,0-0.1,0-0.1-0.1c-0.1,0-0.1,0-0.2-0.1c0,0-0.1,0-0.1,0
	c-0.1,0-0.2,0-0.3,0s-0.2,0-0.3,0c0,0-0.1,0-0.1,0c-0.1,0-0.1,0-0.2,0.1c0,0-0.1,0-0.1,0.1c-0.1,0-0.1,0.1-0.2,0.1
	c0,0-0.1,0.1-0.1,0.1c0,0-0.1,0.1-0.1,0.1c0,0-0.1,0.1-0.1,0.1c0,0-0.1,0.1-0.1,0.1c0,0-0.1,0.1-0.1,0.1c0,0.1-0.1,0.1-0.1,0.2
	c0,0,0,0.1,0,0.1c0,0.1,0,0.1-0.1,0.2c0,0,0,0.1,0,0.2c0,0,0,0.1,0,0.1c-0.2,0.2-1,0.7-2.4,0.7c-1.2,0-2-0.4-2.3-0.6
	c0-0.3-0.1-0.7-0.2-1c-2.4-4.1-9.2-7-17-7.2c0.5-1.6,1.5-5,2.8-8.1c1.9-4.4,4.8-7.2,6.8-8.6c0.5,0.6,1,1.5,1.4,2.4
	c1.1,2.4,1.1,4.8,1.1,4.8c0,0.6,0.4,1.1,0.9,1.2c0.1,0,0.2,0.1,0.4,0.1c0.4,0,0.8-0.2,1.1-0.6c0.3-0.4,2.5-3.9,1.5-7.1
	c1.8,0.9,3,2,3.1,2c0.2,0.2,0.6,0.3,0.9,0.3c0.2,0,0.4-0.1,0.6-0.2c0.5-0.3,0.7-0.9,0.6-1.4c-0.1-0.2-1.2-4.4-4.1-6.1
	c0.8,0,1.3,0.1,1.3,0.1c0.6,0.1,1.1-0.2,1.3-0.7c0.2-0.5,0.1-1.1-0.3-1.5c-0.3-0.3-3-2.6-5.7-2.6c-0.5,0-1,0.1-1.5,0.3
	c-0.6,0.2-1.2,0.6-1.6,1.1c-0.3-0.4-0.7-0.7-1.1-1C44,22,43,21.7,41.7,21.7c-2.1,0-4.1,0.9-4.2,0.9c-0.5,0.2-0.8,0.8-0.7,1.3
	c0.1,0.6,0.5,1,1.1,1.1c0,0,0.8,0.1,1.8,0.5c-3,0.4-4.8,3.8-5.1,4.2c-0.3,0.5-0.2,1.1,0.2,1.5c0.2,0.2,0.6,0.4,0.9,0.4
	c0.2,0,0.4-0.1,0.6-0.2c0,0,1.8-1,4-1.2c0.7-0.1,1.3,0,1.9,0c-2.1,1.8-4.7,4.6-6.4,8.7c-0.7,1.7-1.4,3.5-1.9,5.1
	c-0.3-3.2-0.8-7.5-1.5-11.6c-1.5-8.7-3.6-15.1-5-18.7c0.3,0.2,0.6,0.3,0.8,0.5c3.6,2.4,5.5,6,5.5,6c0.3,0.6,0.9,0.9,1.5,0.9
	c0.1,0,0.2,0,0.3,0c0.7-0.1,1.3-0.7,1.4-1.5c0-0.3,0.7-5.9-1.6-9.8c2.2,0.3,3.7,0.8,3.7,0.8c0.7,0.2,1.5-0.1,1.9-0.7
	c0.4-0.6,0.4-1.4-0.1-2c-0.2-0.3-5.5-6.9-11.2-6.9c-2.1,0-3.9,1-5.3,2.2c-0.5-0.8-1.1-1.6-2-2.1C21.2,0.4,19.8,0,18,0
	c-3.8,0-7.9,2.1-8,2.1C9.3,2.5,9,3.2,9.1,4c0.1,0.7,0.8,1.3,1.5,1.4c0,0,2.5,0.2,5.2,1.5c-0.1,0-0.2,0-0.4,0c-1.4,0-2.7,0.3-3.8,0.8
	c-5.9,2.6-7.4,11.3-7.4,11.6C4,20,4.4,20.7,5.1,21.1c0.2,0.1,0.5,0.2,0.7,0.2c0.5,0,0.9-0.2,1.3-0.6c0,0,2.7-3,6.8-5
	c-2.7,5.5,0.8,15.2,1.4,16.3c0.3,0.6,0.9,0.9,1.5,0.9c0.1,0,0.2,0,0.3,0c0.7-0.2,1.3-0.8,1.3-1.5c0-0.1,0.5-5.8,3.5-11.7
	c0.8-1.5,1.6-2.9,2.5-4.1C25.8,19,27.8,25,29.1,33c1,6.1,1.6,12.6,1.8,15.3c-7.3,0.7-13.1,3.6-15,7.7c-0.1,0.2-0.1,0.4-0.1,0.6
	c-0.4,0.2-1,0.4-1.8,0.4c-1.4,0-2.2-0.5-2.4-0.7c0-0.1,0-0.1,0-0.1c0-0.1,0-0.1,0-0.2c0-0.1,0-0.1-0.1-0.2c0,0,0-0.1,0-0.1
	c0-0.1-0.1-0.1-0.1-0.2c0,0,0-0.1-0.1-0.1c0-0.1-0.1-0.1-0.1-0.1c0,0-0.1-0.1-0.1-0.1c0,0-0.1-0.1-0.1-0.1c0,0-0.1-0.1-0.1-0.1
	c-0.1,0-0.1-0.1-0.2-0.1c0,0-0.1,0-0.1-0.1c-0.1,0-0.1,0-0.2-0.1c0,0-0.1,0-0.1,0c-0.1,0-0.2,0-0.3,0c-0.1,0-0.2,0-0.3,0
	c0,0-0.1,0-0.1,0c-0.1,0-0.1,0-0.2,0.1c0,0-0.1,0-0.1,0.1c-0.1,0-0.1,0.1-0.2,0.1c0,0-0.1,0.1-0.1,0.1c0,0-0.1,0.1-0.1,0.1
	c0,0-0.1,0.1-0.1,0.1c0,0-0.1,0.1-0.1,0.1c0,0,0,0.1-0.1,0.1c0,0.1-0.1,0.1-0.1,0.2c0,0,0,0.1,0,0.1c0,0.1,0,0.1-0.1,0.2
	c0,0,0,0.1,0,0.2s0,0.1,0,0.1c-0.2,0.2-1,0.7-2.4,0.7c-1.4,0-2.2-0.5-2.4-0.7c0-0.9-0.8-1.6-1.7-1.6c-0.9,0-1.7,0.8-1.7,1.7
	c0,2.3,2.5,4,5.8,4c1.6,0,3.1-0.4,4.1-1.1c1,0.7,2.5,1.1,4.1,1.1c1.6,0,3.1-0.4,4.1-1.1c1,0.7,2.5,1.1,4.1,1.1s3.1-0.4,4.1-1.1
	c1,0.7,2.5,1.1,4.1,1.1s3.1-0.4,4.1-1.1c1,0.7,2.5,1.1,4.1,1.1c1.6,0,3.1-0.4,4.1-1.1c1,0.7,2.5,1.1,4.1,1.1s3.1-0.4,4.1-1.1
	c1,0.7,2.5,1.1,4.1,1.1s3.1-0.4,4.1-1.1c1,0.7,2.5,1.1,4.1,1.1c3.3,0,5.8-1.7,5.8-4C68.8,55.3,68.1,54.6,67.1,54.6z M15.4,10.3
	c0.9,0,1.7,0.1,2.6,0.3c-1.4,0.3-2.9,0.8-4.5,1.5c-1.5,0.7-2.9,1.5-4.1,2.3c0.9-1.6,2-3,3.5-3.6C13.6,10.4,14.5,10.3,15.4,10.3z
	 M16.5,3.5c0.5-0.1,1-0.1,1.5-0.1c1,0,1.9,0.2,2.5,0.6c0.7,0.5,1.1,1.2,1.5,2.1c0.1,0.4,0.2,0.7,0.3,1.1c-0.1,0-0.1,0-0.2,0.1
	c-0.2-0.2-0.4-0.4-0.6-0.5c-0.6-0.5-1.2-1-1.9-1.5C18.6,4.5,17.5,4,16.5,3.5z M27.1,9.8C27.1,9.8,27.1,9.8,27.1,9.8
	c-0.1-0.1-0.2-0.1-0.4-0.2c0.2,0,0.4,0,0.6-0.1c0.3,0,0.6,0,0.9,0c0.2,0,0.3,0,0.5,0c0.3,0,0.6,0.1,0.9,0.1c0.6,0.1,1.2,0.3,1.6,0.6
	c1.2,0.8,1.8,2.3,2.2,3.9c-0.9-0.9-2-1.9-3.2-2.7c-0.5-0.3-1-0.6-1.5-0.9C28.2,10.3,27.7,10.1,27.1,9.8z M30.3,6.1
	c-0.6,0-1.1,0-1.7,0.1c-0.1,0-0.3,0-0.4,0c-0.7,0-1.4,0.1-2.1,0.2c1-1,2.2-1.8,3.6-1.8c1.5,0,3.1,0.8,4.5,1.8
	C33,6.2,31.7,6.1,30.3,6.1z M17,17.1c0.7-1.4,1.9-2.6,3.2-3.5c0.6-0.4,1.2-0.8,1.8-1.1c0.3-0.1,0.6-0.3,0.8-0.4
	c-0.2,0.2-0.4,0.5-0.6,0.8c-0.1,0.1-0.2,0.3-0.3,0.4c-1,1.4-2,3-2.9,4.7c-1.1,2.1-1.8,4.1-2.4,6C16.2,21.5,16.1,18.8,17,17.1z
	 M46.7,56.9c-1.4,0-2.2-0.5-2.4-0.7c0-0.1,0-0.1,0-0.1c0-0.1,0-0.1,0-0.2c0-0.1,0-0.1-0.1-0.2c0,0,0-0.1,0-0.1
	c0-0.1-0.1-0.1-0.1-0.2c0,0,0-0.1-0.1-0.1c0,0-0.1-0.1-0.1-0.1c0,0-0.1-0.1-0.1-0.1c0,0-0.1-0.1-0.1-0.1c0,0-0.1-0.1-0.1-0.1
	c-0.1,0-0.1-0.1-0.2-0.1c0,0-0.1,0-0.1-0.1c-0.1,0-0.1,0-0.2-0.1c0,0-0.1,0-0.1,0c-0.1,0-0.2,0-0.3,0c-0.1,0-0.2,0-0.3,0
	c0,0-0.1,0-0.1,0c-0.1,0-0.1,0-0.2,0.1c0,0-0.1,0-0.1,0.1c-0.1,0-0.1,0.1-0.2,0.1c0,0-0.1,0.1-0.1,0.1c0,0-0.1,0.1-0.1,0.1
	c0,0-0.1,0.1-0.1,0.1c0,0-0.1,0.1-0.1,0.1c0,0,0,0.1-0.1,0.1c0,0.1-0.1,0.1-0.1,0.2c0,0,0,0.1,0,0.1c0,0.1,0,0.1-0.1,0.2
	c0,0,0,0.1,0,0.2c0,0,0,0.1,0,0.1c-0.2,0.2-1,0.7-2.4,0.7c-1.4,0-2.2-0.5-2.4-0.7c0-0.1,0-0.1,0-0.1c0-0.1,0-0.1,0-0.2
	c0-0.1,0-0.1-0.1-0.2c0,0,0-0.1,0-0.1c0-0.1-0.1-0.1-0.1-0.2c0,0,0-0.1-0.1-0.1c0,0-0.1-0.1-0.1-0.1c0,0-0.1-0.1-0.1-0.1
	c0,0-0.1-0.1-0.1-0.1c0,0-0.1-0.1-0.1-0.1c-0.1,0-0.1-0.1-0.2-0.1c0,0-0.1,0-0.1-0.1c-0.1,0-0.1,0-0.2-0.1c0,0-0.1,0-0.1,0
	c-0.1,0-0.2,0-0.3,0s-0.2,0-0.3,0c0,0-0.1,0-0.1,0c-0.1,0-0.1,0-0.2,0.1c0,0-0.1,0-0.1,0.1c-0.1,0-0.1,0.1-0.2,0.1
	c0,0-0.1,0.1-0.1,0.1c0,0-0.1,0.1-0.1,0.1c0,0-0.1,0.1-0.1,0.1c0,0-0.1,0.1-0.1,0.1c0,0,0,0.1-0.1,0.1c0,0.1-0.1,0.1-0.1,0.2
	c0,0,0,0.1,0,0.1c0,0.1,0,0.1-0.1,0.2c0,0,0,0.1,0,0.2c0,0,0,0.1,0,0.1c-0.2,0.2-1,0.7-2.4,0.7c-1.4,0-2.2-0.5-2.4-0.7
	c0-0.1,0-0.1,0-0.1c0-0.1,0-0.1,0-0.2c0-0.1,0-0.1-0.1-0.2c0,0,0-0.1,0-0.1c0-0.1-0.1-0.1-0.1-0.2c0,0,0-0.1-0.1-0.1
	c0-0.1-0.1-0.1-0.1-0.1c0,0-0.1-0.1-0.1-0.1c0,0-0.1-0.1-0.1-0.1c0,0-0.1-0.1-0.1-0.1c-0.1,0-0.1-0.1-0.2-0.1c0,0-0.1,0-0.1-0.1
	c-0.1,0-0.1,0-0.2-0.1c0,0-0.1,0-0.1,0c-0.1,0-0.2,0-0.3,0c-0.1,0-0.2,0-0.3,0c0,0-0.1,0-0.1,0c-0.1,0-0.1,0-0.2,0.1
	c0,0-0.1,0-0.1,0.1c-0.1,0-0.1,0.1-0.2,0.1c0,0-0.1,0.1-0.1,0.1c0,0-0.1,0.1-0.1,0.1c0,0-0.1,0.1-0.1,0.1c0,0-0.1,0.1-0.1,0.1
	c0,0,0,0.1-0.1,0.1c0,0.1-0.1,0.1-0.1,0.2c0,0,0,0.1,0,0.1c0,0.1,0,0.1-0.1,0.2c0,0,0,0.1,0,0.2c0,0,0,0.1,0,0.1
	c-0.2,0.2-1,0.7-2.4,0.7c-1.3,0-2.1-0.4-2.3-0.7c2.2-2.5,7.4-4.7,14.5-4.7c6.5,0,12.2,2,14.6,4.8C48.6,56.6,47.8,56.9,46.7,56.9z"/>
</svg>
